<?xml version="1.0" standalone="no"?>
<!DOCTYPE svg PUBLIC "-//W3C//DTD SVG 20010904//EN"
 "http://www.w3.org/TR/2001/REC-SVG-20010904/DTD/svg10.dtd">
<svg version="1.0" xmlns="http://www.w3.org/2000/svg"
 width="512.000000pt" height="512.000000pt" viewBox="0 0 512.000000 512.000000"
 preserveAspectRatio="xMidYMid meet">
<metadata>
Created by potrace 1.14, written by Peter Selinger 2001-2017
</metadata>
<g transform="translate(0.000000,512.000000) scale(0.100000,-0.100000)"
fill="#000000" stroke="none">
<path d="M2307 4354 c-1 -1 -69 -5 -151 -8 -147 -7 -206 -11 -336 -21 -134
-11 -178 -16 -295 -31 -66 -9 -136 -18 -155 -20 -19 -2 -46 -6 -60 -9 -14 -3
-43 -7 -65 -11 -22 -3 -85 -14 -140 -26 -55 -11 -111 -22 -125 -24 -14 -3 -39
-9 -56 -15 -17 -5 -40 -11 -52 -14 -102 -19 -313 -92 -445 -153 -226 -105
-377 -255 -413 -410 -11 -46 -14 -250 -14 -1052 1 -635 4 -1011 11 -1040 56
-250 341 -442 851 -573 73 -19 149 -37 168 -41 19 -3 46 -9 60 -11 160 -35
540 -86 740 -100 47 -3 105 -8 129 -10 229 -24 961 -24 1211 0 25 2 77 6 115
9 152 13 257 24 378 40 17 3 57 8 87 11 30 3 62 8 70 10 14 4 29 7 113 20 79
13 241 49 347 77 497 132 782 329 830 574 5 29 9 464 9 1049 l0 1000 -24 69
c-28 79 -60 128 -127 196 -155 156 -501 300 -909 379 -57 11 -111 22 -119 25
-8 3 -33 8 -55 10 -22 3 -74 10 -115 17 -41 6 -91 13 -110 15 -19 2 -71 8
-115 13 -44 6 -105 13 -135 15 -30 3 -80 8 -110 11 -175 17 -444 28 -728 29
-145 1 -264 1 -265 0z"/>
</g>
</svg>
